<svg width="700" height="680" viewBox="0 0 700 680" fill="none" xmlns="http://www.w3.org/2000/svg">
    <mask id="mask0_35_93" style="mask-type:alpha" maskUnits="userSpaceOnUse" x="0" y="0"
        width="700" height="680">
        <path fill-rule="evenodd" clip-rule="evenodd"
            d="M0 528.773V151.227C0 67.7031 69.6967 0 155.68 0H301.723V680H155.68C69.6967 680 0 612.297 0 528.773ZM350 222.761V0C543.293 0 700 152.224 700 339.989C700 527.753 543.293 679.977 350 679.977V457.217C416.64 457.217 470.68 404.723 470.68 339.989C470.68 275.255 416.663 222.761 350 222.761ZM398.277 182.687C460.507 200.752 507.78 252.793 517.207 316.552H650.767C645.143 247.104 614.623 182.551 563.36 132.754C517.907 88.601 460.53 60.2913 398.277 50.613V182.687Z"
            fill="white" />
    </mask>
    <g mask="url(#mask0_35_93)">
        <path d="M700 0H0V679.977H700V0Z" fill="url(#paint0_linear_35_93)" />
    </g>
    <defs>
        <linearGradient id="paint0_linear_35_93" x1="350" y1="0" x2="350" y2="679.977"
            gradientUnits="userSpaceOnUse">
            <stop stop-color="#00FFEE" />
            <stop offset="0.3" stop-color="#00FFFF" />
            <stop offset="0.8" stop-color="#0096CC" />
            <stop offset="1" stop-color="#007EAB" />
        </linearGradient>
    </defs>
</svg>